<svg width="1440" height="1909" viewBox="0 0 1440 1909" fill="none" xmlns="http://www.w3.org/2000/svg">
<g opacity="0.4">
<rect y="7" width="1440" height="1902" fill="white"/>
<path d="M127.5 284L414 452M127.5 284H826.5M127.5 284L13 787M127.5 284L78.5 59.5L659 2L1127.25 143M414 452L826.5 284M414 452L336 746.5L622.5 1200L1019 938.5M826.5 284L1178.5 509L1428 333.5M826.5 284L728.5 656.5M826.5 284L1127.25 143M1019 938.5L728.5 656.5M1019 938.5L757 1523L336 1605L127.5 1171.5L13 787M728.5 656.5L1260 689L1366.5 938.5L1043.5 1134.5L1092.5 1237L1203 1171.5L1239.5 1237L1150 1294L1399 1862.5L1150 1633.5L565 1862.5L13 1736V787M1428 2L1127.25 143" stroke="#FF7500" stroke-width="3" stroke-dasharray="20 20"/>
<g clip-path="url(#clip0_1_539)">
<path d="M584 197C588.4 197 592 200.6 592 205C592 209.4 588.4 213 584 213C579.6 213 576 209.4 576 205C576 200.6 579.6 197 584 197ZM620 225H596V277H588V253H580V277H572V225H548V217H620V225Z" fill="#F29D38"/>
</g>
<g clip-path="url(#clip1_1_539)">
<path d="M550.101 1551.67L543.309 1547.75C519.2 1533.89 503.287 1524.75 500.064 1509.98C497.437 1497.94 504.832 1486.42 516.868 1483.79C523.668 1482.31 530.886 1484.05 536.237 1488.12C539.405 1482.19 545.241 1477.6 552.041 1476.12C564.078 1473.49 575.599 1480.89 578.225 1492.92C581.448 1507.7 570.787 1522.63 554.651 1545.31L550.101 1551.67Z" fill="#F29D38"/>
</g>
<g clip-path="url(#clip2_1_539)">
<path d="M1156.97 1044.34L1144.83 1023.63L1158.63 1015.54L1170.77 1036.24L1188.02 1026.13L1171.84 998.524L1182.19 992.455L1129.48 981.627L1113.18 1032.91L1123.53 1026.84L1139.71 1054.45L1156.97 1044.34Z" fill="#F29D38"/>
</g>
<g clip-path="url(#clip3_1_539)">
<path d="M727 568C709.585 568 695.5 582.085 695.5 599.5C695.5 623.125 727 658 727 658C727 658 758.5 623.125 758.5 599.5C758.5 582.085 744.415 568 727 568ZM727 610.75C720.79 610.75 715.75 605.71 715.75 599.5C715.75 593.29 720.79 588.25 727 588.25C733.21 588.25 738.25 593.29 738.25 599.5C738.25 605.71 733.21 610.75 727 610.75Z" fill="#F29D38"/>
</g>
<path d="M1003.04 655.031C1000.75 654.909 998.796 656.683 998.674 658.971C998.552 661.259 1000.3 663.23 1002.59 663.352C1004.88 663.474 1006.85 661.701 1006.97 659.413C1007.1 657.124 1005.32 655.152 1003.04 655.031ZM992.325 621.08L992.104 625.241L996.265 625.462L1002.91 641.651L999.834 646.598C999.47 647.163 999.246 647.84 999.207 648.568C999.085 650.856 1000.86 652.828 1003.15 652.95L1028.11 654.279L1028.33 650.119L1004.24 648.836C1003.95 648.82 1003.73 648.579 1003.75 648.288L1003.82 648.042L1005.88 644.75L1021.38 645.576C1022.94 645.659 1024.36 644.879 1025.13 643.627L1033.3 630.521C1033.48 630.239 1033.58 629.89 1033.6 629.536C1033.66 628.392 1032.78 627.406 1031.63 627.345L1000.86 625.707L999.128 621.442L992.325 621.08ZM1023.84 656.138C1021.55 656.016 1019.6 657.79 1019.48 660.079C1019.36 662.367 1021.11 664.338 1023.4 664.46C1025.68 664.582 1027.66 662.809 1027.78 660.52C1027.9 658.232 1026.13 656.26 1023.84 656.138Z" fill="#F29D38"/>
<g clip-path="url(#clip4_1_539)">
<path d="M635.321 1076.69L614.007 1109.82L627.179 1129.88C639.362 1148.44 663.596 1157.36 683.616 1150.25C698.104 1134.71 699.551 1108.93 687.367 1090.37L674.196 1070.3L635.321 1076.69ZM663.757 1134.58L641.601 1129.98L643.22 1122.17L657.544 1125.11L665.113 1088.61L672.945 1090.27L663.757 1134.58Z" fill="#F29D38"/>
</g>
<g clip-path="url(#clip5_1_539)">
<path d="M340.88 1722.28L278.278 1708.98C273.974 1708.06 269.743 1710.84 268.829 1715.15L258.813 1762.09C257.899 1766.39 260.672 1770.66 264.976 1771.58L327.578 1784.88C331.882 1785.79 336.152 1783.02 337.066 1778.72L347.043 1731.77C347.957 1727.46 345.184 1723.19 340.88 1722.28ZM329.241 1777.05L266.639 1763.75L274.952 1724.63L302.097 1750.84L337.555 1737.93L329.241 1777.05ZM303.759 1743.02L276.615 1716.8L339.217 1730.1L303.759 1743.02Z" fill="#F29D38"/>
</g>
<g clip-path="url(#clip6_1_539)">
<path d="M693 189.04L653 189C648.6 189 645.04 192.6 645.04 197V269C645.04 273.4 648.6 277 653 277H693C697.4 277 701 273.4 701 269V197C701 192.6 697.4 189.04 693 189.04ZM693 261H653V205H693V261Z" fill="#F29D38"/>
</g>
<path d="M43.8399 1019.5L103.041 1089.08L112.625 998.227L85.8635 1006.46L95.9494 1066.15L70.5779 1011.19L43.8399 1019.5Z" fill="#F29D38"/>
<path d="M478.253 905.596L403.699 852.804L416.856 943.204L440.753 928.613L416.235 873.27L454.397 920.255L478.253 905.596Z" fill="#F29D38"/>
</g>
<defs>
<clipPath id="clip0_1_539">
<rect width="96" height="96" fill="white" transform="translate(536 189)"/>
</clipPath>
<clipPath id="clip1_1_539">
<rect width="96" height="96" fill="white" transform="translate(485 1478.46) rotate(-12.3079)"/>
</clipPath>
<clipPath id="clip2_1_539">
<rect width="96" height="96" fill="white" transform="translate(1082 995.549) rotate(-30.3788)"/>
</clipPath>
<clipPath id="clip3_1_539">
<rect width="108" height="108" fill="white" transform="translate(673 559)"/>
</clipPath>
<clipPath id="clip4_1_539">
<rect width="96" height="96" fill="white" transform="translate(593 1099.69) rotate(-33.2852)"/>
</clipPath>
<clipPath id="clip5_1_539">
<rect width="96" height="96" fill="white" transform="translate(265.953 1690) rotate(11.9958)"/>
</clipPath>
<clipPath id="clip6_1_539">
<rect width="96" height="96" fill="white" transform="translate(625 185)"/>
</clipPath>
</defs>
</svg>
