<svg width="1411" height="1909" viewBox="0 0 1411 1909" fill="none" xmlns="http://www.w3.org/2000/svg">
<g opacity="0.1">
<rect y="7" width="1410.04" height="1902" fill="white"/>
<path d="M124.848 284L405.387 452M124.848 284H809.305M124.848 284L12.7297 787M124.848 284L76.867 59.5L645.29 2L1103.8 143M405.387 452L809.305 284M405.387 452L329.01 746.5L609.549 1200L997.8 938.5M809.305 284L1153.98 509L1398.29 333.5M809.305 284L713.344 656.5M809.305 284L1103.8 143M997.8 938.5L713.344 656.5M997.8 938.5L741.251 1523L329.01 1605L124.848 1171.5L12.7297 787M713.344 656.5L1233.79 689L1338.07 938.5L1021.79 1134.5L1069.77 1237L1177.97 1171.5L1213.71 1237L1126.08 1294L1369.89 1862.5L1126.08 1633.5L553.246 1862.5L12.7297 1736V787M1398.29 2L1103.8 143" stroke="#FF7500" stroke-width="3" stroke-dasharray="20 20"/>
<g clip-path="url(#clip0_604_2583)">
<path d="M571.85 197C576.158 197 579.683 200.6 579.683 205C579.683 209.4 576.158 213 571.85 213C567.541 213 564.016 209.4 564.016 205C564.016 200.6 567.541 197 571.85 197ZM607.101 225H583.6V277H575.767V253H567.933V277H560.1V225H536.599V217H607.101V225Z" fill="#F29D38"/>
</g>
<g clip-path="url(#clip1_604_2583)">
<path d="M538.656 1551.67L532.005 1547.75C508.398 1533.89 492.816 1524.75 489.66 1509.98C487.088 1497.94 494.329 1486.42 506.115 1483.79C512.774 1482.31 519.841 1484.05 525.08 1488.12C528.183 1482.19 533.897 1477.6 540.556 1476.12C552.342 1473.49 563.624 1480.89 566.195 1492.92C569.351 1507.7 558.912 1522.63 543.111 1545.31L538.656 1551.67Z" fill="#F29D38"/>
</g>
<g clip-path="url(#clip2_604_2583)">
<path d="M1132.89 1044.34L1121.01 1023.63L1134.53 1015.54L1146.41 1036.24L1163.31 1026.13L1147.46 998.524L1157.6 992.455L1105.98 981.627L1090.02 1032.91L1100.15 1026.84L1116 1054.45L1132.89 1044.34Z" fill="#F29D38"/>
</g>
<g clip-path="url(#clip3_604_2583)">
<path d="M711.875 568C694.822 568 681.031 582.085 681.031 599.5C681.031 623.125 711.875 658 711.875 658C711.875 658 742.72 623.125 742.72 599.5C742.72 582.085 728.928 568 711.875 568ZM711.875 610.75C705.794 610.75 700.859 605.71 700.859 599.5C700.859 593.29 705.794 588.25 711.875 588.25C717.956 588.25 722.891 593.29 722.891 599.5C722.891 605.71 717.956 610.75 711.875 610.75Z" fill="#F29D38"/>
</g>
<path d="M982.168 655.031C979.927 654.909 978.017 656.683 977.897 658.971C977.778 661.259 979.493 663.23 981.734 663.352C983.975 663.474 985.906 661.701 986.025 659.413C986.145 657.124 984.409 655.152 982.168 655.031ZM971.681 621.08L971.464 625.241L975.538 625.462L982.048 641.651L979.033 646.598C978.676 647.163 978.457 647.84 978.419 648.568C978.3 650.856 980.036 652.828 982.276 652.95L1006.72 654.279L1006.94 650.119L983.349 648.836C983.064 648.82 982.852 648.579 982.867 648.288L982.941 648.042L984.951 644.75L1000.13 645.576C1001.66 645.659 1003.04 644.879 1003.8 643.627L1011.8 630.521C1011.98 630.239 1012.08 629.89 1012.1 629.536C1012.16 628.392 1011.29 627.406 1010.17 627.345L980.04 625.707L978.342 621.442L971.681 621.08ZM1002.54 656.138C1000.3 656.016 998.388 657.79 998.268 660.079C998.149 662.367 999.864 664.338 1002.11 664.46C1004.35 664.582 1006.28 662.809 1006.4 660.52C1006.52 658.232 1004.78 656.26 1002.54 656.138Z" fill="#F29D38"/>
<g clip-path="url(#clip4_604_2583)">
<path d="M622.103 1076.69L601.233 1109.82L614.131 1129.88C626.061 1148.44 649.79 1157.36 669.394 1150.25C683.58 1134.71 684.997 1108.93 673.067 1090.37L660.17 1070.3L622.103 1076.69ZM649.948 1134.58L628.253 1129.98L629.838 1122.17L643.865 1125.11L651.276 1088.61L658.945 1090.27L649.948 1134.58Z" fill="#F29D38"/>
</g>
<g clip-path="url(#clip5_604_2583)">
<path d="M333.788 1722.28L272.488 1708.98C268.274 1708.06 264.131 1710.84 263.236 1715.15L253.429 1762.09C252.533 1766.39 255.249 1770.66 259.463 1771.58L320.763 1784.88C324.978 1785.79 329.158 1783.02 330.054 1778.72L339.823 1731.77C340.718 1727.46 338.003 1723.19 333.788 1722.28ZM322.391 1777.05L261.091 1763.75L269.232 1724.63L295.812 1750.84L330.532 1737.93L322.391 1777.05ZM297.44 1743.02L270.86 1716.8L332.16 1730.1L297.44 1743.02Z" fill="#F29D38"/>
</g>
<g clip-path="url(#clip6_604_2583)">
<path d="M678.582 189.04L639.415 189C635.106 189 631.62 192.6 631.62 197V269C631.62 273.4 635.106 277 639.415 277H678.582C682.891 277 686.416 273.4 686.416 269V197C686.416 192.6 682.891 189.04 678.582 189.04ZM678.582 261H639.415V205H678.582V261Z" fill="#F29D38"/>
</g>
<path d="M42.928 1019.5L100.897 1089.08L110.282 998.227L84.0772 1006.46L93.9533 1066.15L69.1097 1011.19L42.928 1019.5Z" fill="#F29D38"/>
<path d="M468.303 905.596L395.3 852.804L408.183 943.204L431.584 928.613L407.575 873.27L444.943 920.255L468.303 905.596Z" fill="#F29D38"/>
</g>
<defs>
<clipPath id="clip0_604_2583">
<rect width="94.0028" height="96" fill="white" transform="translate(524.849 189)"/>
</clipPath>
<clipPath id="clip1_604_2583">
<rect width="94.0944" height="95.9101" fill="white" transform="matrix(0.976064 -0.217481 0.208925 0.977932 474.91 1478.46)"/>
</clipPath>
<clipPath id="clip2_604_2583">
<rect width="94.5176" height="95.4932" fill="white" transform="matrix(0.858002 -0.513646 0.497821 0.86728 1059.49 995.549)"/>
</clipPath>
<clipPath id="clip3_604_2583">
<rect width="105.753" height="108" fill="white" transform="translate(658.999 559)"/>
</clipPath>
<clipPath id="clip4_604_2583">
<rect width="94.6088" height="95.4029" fill="white" transform="matrix(0.830595 -0.556877 0.540753 0.841181 580.663 1099.69)"/>
</clipPath>
<clipPath id="clip5_604_2583">
<rect width="94.0899" height="95.9146" fill="white" transform="matrix(0.977257 0.212059 -0.203697 0.979034 260.419 1690)"/>
</clipPath>
<clipPath id="clip6_604_2583">
<rect width="94.0028" height="96" fill="white" transform="translate(611.997 185)"/>
</clipPath>
</defs>
</svg>
