<svg width="19" height="19" viewBox="0 0 19 19" fill="none" xmlns="http://www.w3.org/2000/svg">
<g clip-path="url(#clip0_635_742)">
<path d="M9.41 7.42922C10.37 7.47422 10.6175 8.29172 10.6325 8.67422H11.975C11.915 7.18922 10.8575 6.28172 9.3875 6.28172C7.73 6.28172 6.5 7.32422 6.5 9.67922C6.5 11.1342 7.1975 12.8592 9.38 12.8592C11.045 12.8592 11.9375 11.6217 11.96 10.6467H10.6175C10.595 11.0892 10.28 11.6817 9.395 11.7267C8.4125 11.6967 8 10.9317 8 9.67922C8 7.51172 8.96 7.44422 9.41 7.42922ZM9.5 2.07422C5.36 2.07422 2 5.43422 2 9.57422C2 13.7142 5.36 17.0742 9.5 17.0742C13.64 17.0742 17 13.7142 17 9.57422C17 5.43422 13.64 2.07422 9.5 2.07422ZM9.5 15.5742C6.1925 15.5742 3.5 12.8817 3.5 9.57422C3.5 6.26672 6.1925 3.57422 9.5 3.57422C12.8075 3.57422 15.5 6.26672 15.5 9.57422C15.5 12.8817 12.8075 15.5742 9.5 15.5742Z" fill="black"/>
</g>
<defs>
<clipPath id="clip0_635_742">
<rect width="18" height="18" fill="white" transform="translate(0.5 0.574219)"/>
</clipPath>
</defs>
</svg>
