<svg width="19" height="19" viewBox="0 0 19 19" fill="none" xmlns="http://www.w3.org/2000/svg">
<g clip-path="url(#clip0_635_16)">
<path d="M9.40878 7.72188C10.3688 7.76688 10.6163 8.58438 10.6313 8.96688H11.9738C11.9138 7.48188 10.8563 6.57438 9.38628 6.57438C7.72878 6.57438 6.49878 7.61688 6.49878 9.97188C6.49878 11.4269 7.19628 13.1519 9.37878 13.1519C11.0438 13.1519 11.9363 11.9144 11.9588 10.9394H10.6163C10.5938 11.3819 10.2788 11.9744 9.39378 12.0194C8.41128 11.9894 7.99878 11.2244 7.99878 9.97188C7.99878 7.80438 8.95878 7.73688 9.40878 7.72188ZM9.49878 2.36688C5.35878 2.36688 1.99878 5.72688 1.99878 9.86688C1.99878 14.0069 5.35878 17.3669 9.49878 17.3669C13.6388 17.3669 16.9988 14.0069 16.9988 9.86688C16.9988 5.72688 13.6388 2.36688 9.49878 2.36688ZM9.49878 15.8669C6.19128 15.8669 3.49878 13.1744 3.49878 9.86688C3.49878 6.55938 6.19128 3.86688 9.49878 3.86688C12.8063 3.86688 15.4988 6.55938 15.4988 9.86688C15.4988 13.1744 12.8063 15.8669 9.49878 15.8669Z" fill="black"/>
</g>
<defs>
<clipPath id="clip0_635_16">
<rect width="18" height="18" fill="white" transform="translate(0.498779 0.866882)"/>
</clipPath>
</defs>
</svg>
