<svg width="18" height="18" viewBox="0 0 18 18" fill="none" xmlns="http://www.w3.org/2000/svg">
<g clip-path="url(#clip0_631_3)">
<path d="M8.91 6.855C9.87 6.9 10.1175 7.7175 10.1325 8.1H11.475C11.415 6.615 10.3575 5.7075 8.8875 5.7075C7.23 5.7075 6 6.75 6 9.105C6 10.56 6.6975 12.285 8.88 12.285C10.545 12.285 11.4375 11.0475 11.46 10.0725H10.1175C10.095 10.515 9.78 11.1075 8.895 11.1525C7.9125 11.1225 7.5 10.3575 7.5 9.105C7.5 6.9375 8.46 6.87 8.91 6.855ZM9 1.5C4.86 1.5 1.5 4.86 1.5 9C1.5 13.14 4.86 16.5 9 16.5C13.14 16.5 16.5 13.14 16.5 9C16.5 4.86 13.14 1.5 9 1.5ZM9 15C5.6925 15 3 12.3075 3 9C3 5.6925 5.6925 3 9 3C12.3075 3 15 5.6925 15 9C15 12.3075 12.3075 15 9 15Z" fill="black"/>
</g>
<defs>
<clipPath id="clip0_631_3">
<rect width="18" height="18" fill="white"/>
</clipPath>
</defs>
</svg>
