<svg width="1440" height="81" viewBox="0 0 1440 81" fill="none" xmlns="http://www.w3.org/2000/svg">
<path d="M1 53.1005C405.891 42.1627 1300.03 117.922 1439 53.1005" stroke="#F4952C" stroke-width="2" stroke-dasharray="4 4"/>
<path d="M1358.5 0C1344.95 0 1334 10.955 1334 24.5C1334 42.875 1358.5 70 1358.5 70C1358.5 70 1383 42.875 1383 24.5C1383 10.955 1372.04 0 1358.5 0ZM1358.5 33.25C1353.67 33.25 1349.75 29.33 1349.75 24.5C1349.75 19.67 1353.67 15.75 1358.5 15.75C1363.33 15.75 1367.25 19.67 1367.25 24.5C1367.25 29.33 1363.33 33.25 1358.5 33.25Z" fill="#F29D38"/>
<path d="M1073.28 66.4043C1071.08 66.3265 1069.23 68.0625 1069.16 70.2611C1069.08 72.4597 1070.79 74.3215 1072.99 74.3993C1075.19 74.4771 1077.05 72.7419 1077.13 70.5433C1077.21 68.3447 1075.47 66.4821 1073.28 66.4043ZM1062.41 34L1062.27 37.9975L1066.27 38.1389L1072.93 53.5641L1070.06 58.3655C1069.72 58.9139 1069.51 59.5671 1069.49 60.2666C1069.41 62.4653 1071.15 64.3278 1073.35 64.4056L1097.33 65.2543L1097.47 61.2568L1074.33 60.4378C1074.05 60.4279 1073.84 60.2003 1073.85 59.9204L1073.91 59.6827L1075.83 56.4884L1090.72 57.0153C1092.22 57.0683 1093.57 56.2955 1094.29 55.0803L1101.9 42.3617C1102.07 42.0875 1102.17 41.7505 1102.18 41.4107C1102.22 40.3114 1101.35 39.3802 1100.25 39.3413L1070.69 38.2953L1068.95 34.2313L1062.41 34ZM1093.26 67.1116C1091.06 67.0338 1089.22 68.7697 1089.14 70.9683C1089.07 73.167 1090.78 75.0288 1092.98 75.1066C1095.18 75.1844 1097.04 73.4492 1097.12 71.2505C1097.2 69.0519 1095.46 67.1894 1093.26 67.1116Z" fill="#F29D38"/>
<g clip-path="url(#clip0_1_672)">
<path d="M166 14.3334L156.833 29.3334H175.167L166 14.3334Z" fill="#F29D38"/>
<path d="M175.167 47.6666C179.309 47.6666 182.667 44.3088 182.667 40.1666C182.667 36.0245 179.309 32.6666 175.167 32.6666C171.025 32.6666 167.667 36.0245 167.667 40.1666C167.667 44.3088 171.025 47.6666 175.167 47.6666Z" fill="#F29D38"/>
<path d="M151 33.5H164.333V46.8333H151V33.5Z" fill="#F29D38"/>
</g>
<path d="M458.349 25.0042L444.787 34.691L444.321 54.6856L470.98 55.3065L471.446 35.3119L458.349 25.0042ZM458.814 40.8526C458.781 42.2356 457.639 43.326 456.256 43.2937L456.101 49.9586L454.435 49.9198L454.59 43.2549C453.207 43.2227 452.117 42.0804 452.149 40.6974L452.265 35.6988L453.931 35.7376L453.815 40.7362L454.648 40.7556L454.765 35.757L456.431 35.7958L456.314 40.7944L457.147 40.8138L457.264 35.8152L458.93 35.854L458.814 40.8526ZM462.766 50.1138L461.1 50.075L461.235 44.2433L459.569 44.2045L459.686 39.2058C459.728 37.373 461.263 35.9083 463.096 35.951L462.766 50.1138Z" fill="#F29D38"/>
<defs>
<clipPath id="clip0_1_672">
<rect width="40" height="40" fill="white" transform="translate(146 11)"/>
</clipPath>
</defs>
</svg>
