<svg width="1440" height="81" viewBox="0 0 1440 81" fill="none" xmlns="http://www.w3.org/2000/svg">
<path d="M1 53.1005C405.891 42.1627 1300.03 117.922 1439 53.1005" stroke="#F4952C" stroke-width="2" stroke-dasharray="4 4"/>
<g clip-path="url(#clip0_1_662)">
<path d="M131.167 22C126.817 23.1666 121.717 23.6666 117 23.6666C112.283 23.6666 107.183 23.1666 102.833 22L102 25.3333C105.1 26.1666 108.667 26.7166 112 27V48.6666H115.333V38.6666H118.667V48.6666H122V27C125.333 26.7166 128.9 26.1666 132 25.3333L131.167 22ZM117 22C118.833 22 120.333 20.5 120.333 18.6666C120.333 16.8333 118.833 15.3333 117 15.3333C115.167 15.3333 113.667 16.8333 113.667 18.6666C113.667 20.5 115.167 22 117 22Z" fill="#F29D38"/>
</g>
<g clip-path="url(#clip1_1_662)">
<path d="M341 52.1666L338.583 49.9666C330 42.1833 324.333 37.05 324.333 30.75C324.333 25.6166 328.367 21.5833 333.5 21.5833C336.4 21.5833 339.183 22.9333 341 25.0666C342.817 22.9333 345.6 21.5833 348.5 21.5833C353.633 21.5833 357.667 25.6166 357.667 30.75C357.667 37.05 352 42.1833 343.417 49.9833L341 52.1666Z" fill="#F29D38"/>
</g>
<path d="M1358.5 0C1344.95 0 1334 10.955 1334 24.5C1334 42.875 1358.5 70 1358.5 70C1358.5 70 1383 42.875 1383 24.5C1383 10.955 1372.04 0 1358.5 0ZM1358.5 33.25C1353.67 33.25 1349.75 29.33 1349.75 24.5C1349.75 19.67 1353.67 15.75 1358.5 15.75C1363.33 15.75 1367.25 19.67 1367.25 24.5C1367.25 29.33 1363.33 33.25 1358.5 33.25Z" fill="#F29D38"/>
<path d="M1073.28 66.4043C1071.08 66.3265 1069.23 68.0625 1069.16 70.2611C1069.08 72.4597 1070.79 74.3215 1072.99 74.3993C1075.19 74.4771 1077.05 72.7419 1077.13 70.5433C1077.21 68.3447 1075.47 66.4821 1073.28 66.4043ZM1062.41 34L1062.27 37.9975L1066.27 38.1389L1072.93 53.5641L1070.06 58.3655C1069.72 58.9139 1069.51 59.5671 1069.49 60.2666C1069.41 62.4653 1071.15 64.3278 1073.35 64.4056L1097.33 65.2543L1097.47 61.2568L1074.33 60.4378C1074.05 60.4279 1073.84 60.2003 1073.85 59.9204L1073.91 59.6827L1075.83 56.4884L1090.72 57.0153C1092.22 57.0683 1093.57 56.2955 1094.29 55.0803L1101.9 42.3617C1102.07 42.0875 1102.17 41.7505 1102.18 41.4107C1102.22 40.3114 1101.35 39.3802 1100.25 39.3413L1070.69 38.2953L1068.95 34.2313L1062.41 34ZM1093.26 67.1116C1091.06 67.0338 1089.22 68.7697 1089.14 70.9683C1089.07 73.167 1090.78 75.0288 1092.98 75.1066C1095.18 75.1844 1097.04 73.4492 1097.12 71.2505C1097.2 69.0519 1095.46 67.1894 1093.26 67.1116Z" fill="#F29D38"/>
<defs>
<clipPath id="clip0_1_662">
<rect width="40" height="40" fill="white" transform="translate(97 12)"/>
</clipPath>
<clipPath id="clip1_1_662">
<rect width="40" height="40" fill="white" transform="translate(321 17)"/>
</clipPath>
</defs>
</svg>
