<svg width="177" height="187" viewBox="0 0 177 187" fill="none" xmlns="http://www.w3.org/2000/svg">
<path d="M45.6951 35.4851C50.5623 34.4422 63.3676 32.7328 69.1618 32.0086L72.6384 29.8357V5.49989L83.5026 6.80359L91.7594 3.76161L100.451 5.49989L108.273 0.285065L110.446 25.49C120.006 24.476 140.257 22.1004 144.777 20.7098C149.296 19.3192 157.959 16.0744 161.725 14.6258L171.72 83.2876C173.313 85.8951 176.5 93.2827 176.5 101.974C176.5 112.838 175.631 153.253 175.631 155.426C175.631 157.164 170.996 160.206 168.678 161.51C167.954 163.393 166.244 167.42 165.201 168.463C163.898 169.767 44.3914 186.715 38.742 186.715C33.0926 186.715 23.0976 186.28 21.7939 184.108C20.4902 181.935 18.3173 132.394 18.3173 130.656C18.3173 128.917 12.6679 76.7691 10.4951 66.3395C8.7568 57.9958 3.10741 50.4053 0.5 47.653L10.4951 41.1345L9.19137 37.658C12.5231 37.8028 20.5771 38.0056 26.1395 37.658C33.0926 37.2234 39.6112 36.7888 45.6951 35.4851Z" fill="white"/>
<path d="M29.5922 180.135C30.0222 180.135 30.4347 179.964 30.7387 179.661C31.0428 179.357 31.2137 178.946 31.2137 178.517C31.2137 178.088 31.0428 177.676 30.7387 177.373C30.4347 177.069 30.0222 176.899 29.5922 176.899C29.1621 176.899 28.7497 177.069 28.4456 177.373C28.1415 177.676 27.9706 178.088 27.9706 178.517C27.9706 178.946 28.1415 179.357 28.4456 179.661C28.7497 179.964 29.1621 180.135 29.5922 180.135Z" fill="#151718"/>
<path d="M75.6694 15.5783C76.9666 27.2787 77.9698 38.9878 78.6789 50.7054C78.7957 52.7634 82.0387 52.7893 81.922 50.7054C81.2215 38.9878 80.2183 27.2787 78.9124 15.5783C78.6919 13.5334 75.4489 13.5075 75.6694 15.5783Z" fill="#151718"/>
<path d="M82.0387 52.4139C83.17 51.0438 84.3875 49.7468 85.6839 48.531C85.9858 48.2258 86.155 47.8143 86.155 47.3856C86.155 46.9568 85.9858 46.5453 85.6839 46.2401C85.3749 45.945 84.9636 45.7803 84.5359 45.7803C84.1081 45.7803 83.6969 45.945 83.3878 46.2401C82.0956 47.4561 80.8825 48.753 79.7556 50.123C79.4506 50.4225 79.266 50.823 79.2367 51.249C79.2436 51.6763 79.4155 52.0843 79.7167 52.388C80.0195 52.6909 80.4295 52.8628 80.8583 52.8669C81.0708 52.8663 81.2811 52.8237 81.4771 52.7415C81.673 52.6593 81.8507 52.5391 81.9998 52.388L82.0387 52.4139Z" fill="#151718"/>
<path d="M84.3218 48.6605C84.8926 48.7899 85.4634 48.9452 86.0212 49.1264L86.7476 49.3853L87.1628 49.5406H87.072L87.2795 49.6312C88.3163 50.0721 89.307 50.614 90.2372 51.249C90.6122 51.4593 91.0545 51.516 91.4707 51.4074C91.8869 51.2987 92.2445 51.0332 92.4684 50.6666C92.6719 50.2929 92.7248 49.8558 92.6164 49.4445C92.5079 49.0332 92.2462 48.6787 91.8846 48.4534C89.8667 47.0369 87.5872 46.0338 85.178 45.5024C84.7637 45.3985 84.3252 45.4592 83.9549 45.6716C83.5846 45.8841 83.3115 46.2318 83.1933 46.6414C83.1339 46.8479 83.1161 47.064 83.1408 47.2774C83.1655 47.4909 83.2321 47.6973 83.337 47.8849C83.4419 48.0725 83.5829 48.2376 83.7519 48.3707C83.9209 48.5038 84.1146 48.6023 84.3218 48.6605Z" fill="#151718"/>
<path d="M92.7019 50.6537C93.1567 49.8812 93.6593 49.1377 94.2067 48.4275L93.9602 48.7511C94.4653 48.1 95.0067 47.4778 95.5817 46.8873C95.7457 46.7401 95.8779 46.5612 95.9702 46.3613C96.0625 46.1614 96.113 45.9448 96.1186 45.7248C96.1241 45.5048 96.0846 45.286 96.0024 45.0818C95.9203 44.8775 95.7973 44.6922 95.6409 44.537C95.4845 44.3818 95.298 44.2601 95.0928 44.1793C94.8876 44.0985 94.6681 44.0603 94.4476 44.0671C94.2272 44.0739 94.0104 44.1255 93.8106 44.2187C93.6108 44.3119 93.4322 44.4448 93.2856 44.6093C91.978 45.9348 90.8407 47.4173 89.8999 49.0229C89.6858 49.3963 89.6271 49.8387 89.7362 50.2549C89.8454 50.6711 90.1137 51.028 90.4836 51.249C90.8575 51.4553 91.2966 51.5099 91.7098 51.4014C92.1229 51.2929 92.4782 51.0298 92.7019 50.6666V50.6537Z" fill="#151718"/>
<path d="M94.6218 47.0685C94.9802 47.0427 95.34 47.0427 95.6985 47.0685H95.2704C95.8323 47.1494 96.3816 47.3017 96.9049 47.5215L96.5157 47.3532C97.0106 47.5743 97.4802 47.8477 97.9167 48.1686L97.5794 47.9098C97.8451 48.117 98.0964 48.3419 98.3318 48.5828C98.6355 48.8831 99.0458 49.0517 99.4734 49.0517C99.901 49.0517 100.311 48.8831 100.615 48.5828C100.913 48.2782 101.08 47.8694 101.08 47.4438C101.08 47.0182 100.913 46.6095 100.615 46.3048C99.8427 45.5003 98.911 44.865 97.8791 44.4394C96.8473 44.0138 95.738 43.8072 94.6218 43.8327C94.1917 43.8327 93.7793 44.0032 93.4752 44.3066C93.1711 44.61 93.0002 45.0215 93.0002 45.4506C93.0002 45.8797 93.1711 46.2912 93.4752 46.5946C93.7793 46.898 94.1917 47.0685 94.6218 47.0685Z" fill="#151718"/>
<path d="M101.289 48.2463C102.443 47.4245 103.41 46.3707 104.13 45.1529C104.24 44.9698 104.311 44.7669 104.341 44.5559C104.37 44.345 104.358 44.1303 104.303 43.9243C104.249 43.7182 104.154 43.5251 104.024 43.3561C103.894 43.187 103.732 43.0455 103.547 42.9397C103.353 42.8247 103.138 42.7515 102.915 42.7247C102.691 42.6979 102.464 42.7183 102.249 42.7844C101.855 42.8934 101.514 43.1418 101.289 43.4833C101.107 43.7875 100.908 44.0813 100.693 44.3634L100.952 44.0269C100.5 44.6073 99.9773 45.1291 99.3955 45.58L99.7198 45.3341L99.6161 45.4118C99.4336 45.5115 99.2779 45.6536 99.162 45.826C99.0246 45.9817 98.9267 46.1682 98.8766 46.3696C98.8157 46.5849 98.7981 46.8101 98.8248 47.0322C98.8515 47.2544 98.9221 47.469 99.0323 47.6639C99.2528 48.0225 99.5999 48.2857 100.005 48.4016L100.433 48.4663C100.721 48.4671 101.003 48.3911 101.251 48.2463H101.289Z" fill="#151718"/>
<path d="M103.326 45.9166H102.898C103.684 46.018 104.452 46.2271 105.181 46.5378L104.792 46.3696C105.135 46.5126 105.468 46.6769 105.791 46.8614C105.984 46.9763 106.199 47.0506 106.422 47.0795C106.645 47.1084 106.872 47.0915 107.088 47.0297C107.492 46.9167 107.836 46.6523 108.048 46.2919C108.26 45.9192 108.319 45.4791 108.212 45.064C108.106 44.6489 107.842 44.2911 107.477 44.0657C106.093 43.2905 104.558 42.8225 102.976 42.6938C102.759 42.6869 102.543 42.7231 102.34 42.8004C102.138 42.8776 101.953 42.9943 101.796 43.1437C101.639 43.2931 101.513 43.4721 101.426 43.6704C101.339 43.8687 101.293 44.0823 101.289 44.2987C101.288 44.5129 101.33 44.7253 101.413 44.9231C101.495 45.1209 101.616 45.3003 101.769 45.4506C102.083 45.735 102.487 45.9 102.911 45.9166H103.326Z" fill="#151718"/>
<path d="M108.424 45.1788C105.83 33.7373 105.959 21.9722 106.089 10.3106C106.089 9.88149 105.918 9.46998 105.614 9.16657C105.31 8.86317 104.898 8.69271 104.468 8.69271C104.038 8.69271 103.625 8.86317 103.321 9.16657C103.017 9.46998 102.846 9.88149 102.846 10.3106C102.703 22.2698 102.652 34.3197 105.298 46.046C105.765 48.078 108.891 47.2108 108.424 45.1788Z" fill="#151718"/>
<path d="M102.937 9.32692L99.0453 14.7759C98.9315 14.9693 98.859 15.1841 98.8322 15.4068C98.8054 15.6295 98.825 15.8554 98.8896 16.0702C99.0028 16.4728 99.2678 16.816 99.629 17.028C100.001 17.2386 100.44 17.297 100.854 17.1908C101.267 17.0845 101.624 16.8219 101.847 16.4585L105.739 10.9966C105.853 10.8032 105.926 10.5889 105.955 10.3665C105.984 10.1442 105.968 9.91824 105.908 9.70226C105.794 9.30358 105.535 8.96184 105.181 8.74448C104.807 8.54141 104.368 8.48861 103.956 8.59685C103.544 8.70508 103.189 8.96621 102.963 9.32692H102.937Z" fill="#151718"/>
<path d="M100.939 14.3617L94.8682 10.7636C94.4951 10.554 94.0549 10.4976 93.6408 10.6064C93.2268 10.7151 92.8714 10.9804 92.65 11.346C92.44 11.7183 92.3835 12.1575 92.4924 12.5706C92.6014 12.9838 92.8673 13.3384 93.2337 13.5593L99.3047 17.1574C99.4887 17.2645 99.692 17.3343 99.9031 17.363C100.114 17.3917 100.329 17.3786 100.535 17.3245C100.741 17.2705 100.934 17.1764 101.104 17.0478C101.273 16.9192 101.416 16.7585 101.523 16.575C101.63 16.3914 101.7 16.1885 101.729 15.978C101.758 15.7674 101.745 15.5532 101.691 15.3477C101.636 15.1422 101.542 14.9493 101.413 14.7802C101.284 14.611 101.123 14.4688 100.939 14.3617Z" fill="#151718"/>
<path d="M92.2089 11.2813C91.7703 11.8063 91.3796 12.3694 91.0414 12.9639C90.7093 13.5591 90.4314 14.1828 90.2112 14.8277C90.1493 15.0435 90.1323 15.2696 90.1613 15.4922C90.1903 15.7148 90.2647 15.9291 90.3799 16.122C90.5923 16.4824 90.9363 16.7468 91.3398 16.8597C91.5561 16.9215 91.7828 16.9385 92.0059 16.9095C92.229 16.8806 92.4438 16.8064 92.637 16.6914C92.9891 16.4693 93.251 16.13 93.3764 15.7337C93.4429 15.5267 93.5208 15.3236 93.6099 15.1253L93.4413 15.5136C93.7521 14.789 94.1531 14.1063 94.6347 13.4816L94.3753 13.7146L94.518 13.5204C94.6766 13.3826 94.7934 13.2033 94.8553 13.0027C94.9535 12.8245 95.0028 12.6236 94.998 12.4203C94.9918 11.9891 94.82 11.5768 94.518 11.2684C94.2138 10.9691 93.8036 10.8016 93.3764 10.8024C93.1643 10.7976 92.9534 10.8365 92.757 10.9167C92.5606 10.9969 92.3828 11.1166 92.2349 11.2684L92.2089 11.2813Z" fill="#151718"/>
<path d="M92.5592 14.1546L88.901 10.9189C88.5937 10.6228 88.1865 10.452 87.7595 10.44C87.3273 10.4461 86.9141 10.6176 86.6049 10.9189C86.3062 11.2257 86.1391 11.6366 86.1391 12.0643C86.1391 12.4921 86.3062 12.903 86.6049 13.2098L90.2631 16.4455C90.5771 16.7378 90.9883 16.9038 91.4176 16.9115C91.8443 16.9095 92.2535 16.7425 92.5592 16.4455C92.8635 16.1386 93.0357 15.7253 93.0392 15.2936C93.0351 14.8658 92.8627 14.4568 92.5592 14.1546Z" fill="#151718"/>
<path d="M86.3844 10.8542C84.5258 11.8198 82.8173 13.0492 81.3123 14.5041C81.037 14.8131 80.8907 15.2155 80.9035 15.6288C80.9162 16.042 81.087 16.4347 81.3809 16.7262C81.6747 17.0177 82.0693 17.186 82.4835 17.1963C82.8977 17.2067 83.3002 17.0585 83.6084 16.782C84.1517 16.2634 84.7234 15.7752 85.3207 15.3195L84.9834 15.5654C85.9399 14.8623 86.9555 14.2431 88.0189 13.7146C88.388 13.496 88.656 13.1414 88.7652 12.7273C88.8745 12.3132 88.8161 11.8728 88.6027 11.5013C88.379 11.1382 88.0237 10.875 87.6105 10.7665C87.1974 10.6581 86.7583 10.7126 86.3844 10.9189V10.8542Z" fill="#151718"/>
<path d="M83.5305 14.6853C82.0698 12.9957 80.375 11.5226 78.4973 10.3106C78.125 10.0977 77.6836 10.0394 77.2686 10.1484C76.8536 10.2573 76.4982 10.5248 76.2791 10.893C76.0691 11.2653 76.0125 11.7045 76.1215 12.1176C76.2305 12.5308 76.4964 12.8853 76.8628 13.1062C77.3731 13.4428 77.866 13.7922 78.3417 14.1546L78.0174 13.9087C79.1915 14.8193 80.2695 15.8472 81.2345 16.9762C81.4629 17.1987 81.7516 17.3496 82.065 17.4102C82.3783 17.4709 82.7027 17.4386 82.9979 17.3175C83.2931 17.1964 83.5463 16.9917 83.7263 16.7286C83.9062 16.4655 84.005 16.1557 84.0105 15.8372C83.9922 15.4087 83.8221 15.0005 83.5305 14.6853Z" fill="#151718"/>
<path d="M76.0586 11.7343C75.9633 13.6155 75.998 15.501 76.1623 17.3774C76.1759 17.8045 76.3415 18.2129 76.6293 18.5293C76.9398 18.8271 77.3533 18.994 77.7839 18.9953C78.2129 18.9919 78.6233 18.8204 78.9267 18.5177C79.2301 18.215 79.402 17.8055 79.4054 17.3774C79.2411 15.501 79.2064 13.6155 79.3016 11.7343C79.2982 11.3063 79.1263 10.8967 78.8229 10.594C78.5196 10.2914 78.1091 10.1198 77.6801 10.1164C77.2531 10.1263 76.8464 10.2999 76.5444 10.6012C76.2425 10.9025 76.0685 11.3083 76.0586 11.7343Z" fill="#151718"/>
<path d="M78.6141 33.3749C58.8729 40.0939 38.0773 43.1983 17.2297 42.5385C15.1411 42.4737 15.1411 45.7095 17.2297 45.7742C38.3756 46.4415 59.4688 43.2978 79.4962 36.4941C81.455 35.8211 80.6118 32.7018 78.627 33.3749H78.6141Z" fill="#151718"/>
<path d="M15.4914 44.5705C18.9679 61.8881 20.0965 79.5164 21.4586 97.1317C22.8207 114.747 24.1309 132.311 24.8314 149.939C25.2076 159.452 25.2984 169.068 27.9187 178.297C27.9758 178.502 28.0728 178.693 28.204 178.861C28.3353 179.028 28.4984 179.168 28.6839 179.273C28.8694 179.377 29.0737 179.444 29.2852 179.47C29.4967 179.496 29.7112 179.48 29.9165 179.423C30.1217 179.366 30.3138 179.269 30.4816 179.138C30.6494 179.007 30.7897 178.845 30.8945 178.659C30.9993 178.474 31.0665 178.27 31.0924 178.059C31.1182 177.848 31.1021 177.634 31.045 177.43C28.71 169.211 28.4506 160.604 28.1652 152.178C27.8279 143.265 27.3609 134.356 26.7642 125.451C25.6356 107.952 24.3773 90.5049 22.7169 72.9932C21.8583 63.1701 20.4901 53.398 18.6177 43.7163C18.2026 41.6713 15.0763 42.5385 15.4914 44.5705Z" fill="#151718"/>
<path d="M29.19 179.928C37.3755 181.222 45.522 179.928 53.4999 178.051C61.4778 176.174 69.5335 173.844 77.4725 171.502C93.3505 166.816 109.021 161.531 124.484 155.647C133.132 152.359 141.694 148.908 150.169 145.292C152.076 144.477 150.428 141.681 148.534 142.497C119.013 155.171 88.5819 165.619 57.4953 173.754C48.5835 176.084 39.3343 178.374 30.0592 176.86C28.0095 176.524 27.1404 179.643 29.19 179.979V179.928Z" fill="#151718"/>
<path d="M148.69 145.059C150.248 146.627 151.922 148.077 153.697 149.395C155.543 150.994 157.691 152.209 160.015 152.967C163.906 153.912 166.669 151.324 167.798 147.894C168.34 146.055 168.684 144.163 168.823 142.251C169.151 139.541 169.415 136.836 169.614 134.136C169.977 129.14 170.155 124.139 170.146 119.135C170.146 98.6201 167.305 78.248 164.049 58.0311C162.22 46.6025 160.157 35.1869 158.471 23.7324C158.16 21.6874 155.033 22.5546 155.345 24.5996C161.026 61.8364 169.614 99.3708 166.112 137.203C165.878 139.792 165.683 142.38 165.203 144.891C164.918 146.418 164.49 148.347 163.193 149.356C161.169 150.935 158.328 148.709 156.707 147.544C154.654 146.111 152.735 144.495 150.973 142.717C150.663 142.442 150.26 142.296 149.846 142.309C149.432 142.321 149.038 142.492 148.746 142.785C148.454 143.078 148.285 143.472 148.275 143.885C148.264 144.299 148.413 144.7 148.69 145.008V145.059Z" fill="#151718"/>
<path d="M156.564 21.9592C148.781 25.5573 140.543 26.5151 132.15 27.3435L106.31 29.9321C104.247 30.1391 104.221 33.3749 106.31 33.1678L133.422 30.5015C142.009 29.6602 150.285 28.4695 158.199 24.8067C160.092 23.9136 158.445 21.1309 156.564 22.011V21.9592Z" fill="#151718"/>
<path d="M30.3186 180.303C49.3358 181.753 68.1974 178.09 86.7736 174.504C105.895 170.829 125.119 167.917 144.448 165.587C151.492 164.746 161.662 164.616 164.62 156.682C164.683 156.442 164.69 156.19 164.641 155.946C164.592 155.703 164.488 155.474 164.337 155.276C164.185 155.079 163.99 154.919 163.767 154.808C163.545 154.697 163.299 154.639 163.05 154.637C136.096 157.704 109.357 162.429 82.9857 168.784C75.5397 170.587 68.1239 172.52 60.7384 174.582C60.3238 174.697 59.972 174.972 59.7604 175.346C59.5487 175.719 59.4946 176.162 59.6098 176.575C59.7251 176.989 60.0003 177.34 60.3749 177.551C60.7496 177.762 61.193 177.816 61.6075 177.701C87.4953 170.48 113.805 164.86 140.388 160.876C147.929 159.737 155.483 158.74 163.05 157.886L161.493 155.841C160.378 158.831 157.2 160.164 154.32 160.914C150.43 161.727 146.491 162.289 142.528 162.597C133.448 163.697 124.445 164.901 115.416 166.26C97.2551 169.017 79.3016 173.21 61.1016 175.747C50.9167 177.277 40.5965 177.711 30.3186 177.041C28.243 176.886 28.243 180.122 30.3186 180.277V180.303Z" fill="#151718"/>
<path d="M89.394 172.667C112.277 165.548 136.846 167.179 159.664 159.853C161.312 159.322 161.143 156.462 159.236 156.669C145.823 158.093 132.488 160.056 119.23 162.558C117.18 162.946 118.05 166.066 120.086 165.69C133.058 163.24 146.108 161.32 159.236 159.931L158.808 156.76C135.977 164.085 111.408 162.455 88.5378 169.573C86.5531 170.195 87.3963 173.327 89.394 172.692V172.667Z" fill="#151718"/>
<path d="M146.575 160.423C152.675 160.655 158.751 159.546 164.373 157.174C166.669 156.364 168.574 154.718 169.705 152.566C170.833 149.978 170.639 146.871 170.807 144.153C171.599 131.638 172.221 119.044 171.119 106.515C170.539 99.5131 169.306 92.5801 167.435 85.8066C167.311 85.4051 167.035 85.0675 166.666 84.8652C166.297 84.6629 165.863 84.6119 165.457 84.7229C165.051 84.8339 164.704 85.0982 164.489 85.4599C164.275 85.8216 164.21 86.2523 164.308 86.6609C167.228 97.7331 168.629 109.149 168.472 120.597C168.472 126.331 168.265 132.052 167.954 137.772C167.798 140.633 167.616 143.493 167.435 146.341C167.266 148.929 167.435 151.66 164.944 153.291C162.288 154.846 159.369 155.899 156.33 156.397C153.126 157.078 149.849 157.361 146.575 157.239C144.487 157.161 144.5 160.397 146.575 160.474V160.423Z" fill="#151718"/>
<path d="M17.1518 44.9847C26.8031 47.3662 36.8436 44.7776 46.3911 43.0432L77.0704 37.5295C79.12 37.1542 78.2508 34.035 76.2142 34.4103L46.8063 39.691C37.4922 41.3736 27.4517 44.1822 18.0339 41.8654C16.0103 41.3736 15.1411 44.454 17.1648 44.9847H17.1518Z" fill="#151718"/>
<path d="M15.3487 43.4833C17.5799 65.6847 19.9538 87.8732 22.4704 110.049C22.7039 112.094 25.947 112.12 25.7135 110.049C23.1969 87.9163 20.823 65.7279 18.5917 43.4833C18.3842 41.4254 15.1411 41.3995 15.3487 43.4833Z" fill="#151718"/>
<path d="M167.707 86.4797L167.292 80.1376C167.282 79.7117 167.108 79.3059 166.806 79.0046C166.504 78.7033 166.097 78.5297 165.67 78.5198C165.241 78.5232 164.831 78.6947 164.528 78.9974C164.224 79.3001 164.052 79.7096 164.049 80.1376L164.464 86.4797C164.464 86.9088 164.635 87.3203 164.939 87.6237C165.243 87.9271 165.656 88.0975 166.086 88.0975C166.516 88.0975 166.928 87.9271 167.232 87.6237C167.536 87.3203 167.707 86.9088 167.707 86.4797Z" fill="#151718"/>
<path d="M17.1648 46.6025L10.4841 47.5344C10.2817 47.5886 10.0923 47.6831 9.92739 47.8121C9.76243 47.9411 9.62529 48.102 9.52417 48.2851C9.40676 48.477 9.33108 48.6914 9.30203 48.9144C9.27298 49.1374 9.29121 49.3639 9.35553 49.5794C9.46817 49.9856 9.73286 50.3331 10.0949 50.5501C10.4962 50.7499 10.9531 50.8091 11.3922 50.7184L18.1247 49.7736C18.5365 49.6586 18.8862 49.3861 19.0976 49.0152C19.3089 48.6443 19.3649 48.2051 19.2533 47.7933C19.14 47.3837 18.8698 47.035 18.5009 46.8226C18.103 46.6123 17.6423 46.5526 17.2037 46.6543L17.1648 46.6025Z" fill="#151718"/>
<path d="M9.57606 50.3948C12.7024 54.2777 13.9866 59.1442 14.7649 63.946C15.5562 69.3821 15.8027 74.8958 16.3346 80.3577C17.528 92.4377 19.1106 104.44 21.0824 116.365C22.1548 123.164 23.3785 129.933 24.7535 136.672C25.1686 138.717 28.2949 137.85 27.8798 135.818C25.3805 123.505 23.2963 111.119 21.6272 98.659C20.823 92.6189 20.1181 86.5185 19.5128 80.3577C18.9679 74.7793 18.6825 69.1621 17.8912 63.5319C17.0999 57.9017 15.4914 52.5433 11.8721 48.1039C10.5749 46.486 8.27884 48.7899 9.57606 50.3948Z" fill="#151718"/>
<path d="M19.4738 59.6361L18.1766 53.6953C17.8134 52.0515 16.9702 49.6959 14.8039 49.9548L16.4254 51.5726L16.3475 50.1877C16.3442 49.7597 16.1722 49.3501 15.8689 49.0475C15.5655 48.7448 15.155 48.5732 14.726 48.5699C14.2967 48.573 13.8854 48.7419 13.5782 49.0411C13.271 49.3404 13.092 49.7467 13.0786 50.1748L13.1564 51.5597C13.1564 52.3492 13.8699 53.2811 14.7779 53.1775C15.1411 53.1775 14.9206 53.1775 14.7001 53.1128C14.4795 53.0481 14.3628 52.8798 14.6222 53.1128C14.3887 52.8928 14.6222 53.1128 14.6222 53.1905C14.6222 53.2681 14.752 53.5399 14.6222 53.2811C14.8557 54.0059 14.9855 54.7566 15.1541 55.5073L16.2438 60.4903C16.3678 60.8918 16.6436 61.2295 17.0128 61.4317C17.3819 61.634 17.8154 61.685 18.2216 61.574C18.6278 61.4631 18.9748 61.1987 19.1891 60.837C19.4035 60.4754 19.4684 60.0446 19.3701 59.6361H19.4738Z" fill="#151718"/>
<path d="M151.881 146.82L133.071 155.142C127 157.834 120.968 160.72 114.716 162.908C108.629 165.124 102.288 166.572 95.8412 167.218C90.0685 167.761 84.0494 167.464 78.8476 170.402C78.6285 170.528 78.4416 170.703 78.3012 170.913C78.1609 171.123 78.0709 171.362 78.0383 171.613C78.0057 171.863 78.0313 172.118 78.1132 172.356C78.195 172.595 78.3309 172.812 78.5103 172.99C80.0799 174.284 81.8052 174.284 83.6992 173.896C86.2936 173.469 88.8881 172.913 91.3528 172.278C91.558 172.221 91.7501 172.125 91.9179 171.994C92.0857 171.863 92.226 171.7 92.3308 171.515C92.4356 171.33 92.5028 171.126 92.5287 170.915C92.5545 170.704 92.5384 170.49 92.4814 170.285C92.4243 170.08 92.3273 169.889 92.1961 169.721C92.0648 169.554 91.9017 169.414 91.7162 169.309C91.5307 169.205 91.3264 169.138 91.1149 169.112C90.9034 169.086 90.6889 169.102 90.4836 169.159C88.7713 169.586 87.033 169.987 85.2948 170.324C84.2829 170.531 81.6755 171.476 80.7675 170.699L80.4432 173.288C85.7488 170.298 92.3516 171.01 98.2021 170.272C104.529 169.496 110.742 167.98 116.713 165.755C122.836 163.464 128.752 160.669 134.719 157.989L153.567 149.615C155.474 148.761 153.827 145.978 151.933 146.82H151.881Z" fill="#151718"/>
<path d="M96.9326 73.1694C89.7259 73.1153 81.3726 76.4165 77.5071 82.7592C76.5437 84.3516 76.0513 86.1803 76.0861 88.0367C76.1208 89.8931 76.6813 91.7025 77.7037 93.2583C79.8002 96.6353 83.2835 98.7243 86.6575 100.651C87.0326 100.869 87.4797 100.931 87.9005 100.822C88.3213 100.713 88.6814 100.444 88.9015 100.072C89.1216 99.7001 89.1837 99.2569 89.0741 98.8398C88.9645 98.4226 88.6923 98.0657 88.3173 97.8475C85.5656 96.2781 82.5519 94.6004 80.7502 91.9594C79.857 90.775 79.3743 89.336 79.3743 87.8572C79.3743 86.3785 79.857 84.9394 80.7502 83.755C84.288 78.8411 91.0362 76.3732 96.9326 76.4165C97.367 76.4165 97.7837 76.2455 98.0908 75.941C98.398 75.6365 98.5705 75.2236 98.5705 74.793C98.5705 74.3624 98.398 73.9494 98.0908 73.6449C97.7837 73.3405 97.367 73.1694 96.9326 73.1694Z" fill="#151718"/>
<path d="M86.5811 98.681C76.5725 107.72 68.4161 118.587 62.5585 130.687C61.6522 132.559 64.4694 134.205 65.3866 132.321C71.1097 120.452 79.0967 109.793 88.9069 100.932C90.4684 99.5252 88.1426 97.2306 86.5811 98.6377V98.681Z" fill="#151718"/>
<path d="M62.5913 132.332C63.5353 133.9 64.8135 135.245 66.3366 136.272C66.7179 136.486 67.1684 136.544 67.5923 136.434C68.0028 136.316 68.3536 136.05 68.5751 135.687C68.6876 135.5 68.7602 135.292 68.7884 135.076C68.8166 134.86 68.7997 134.641 68.7389 134.432C68.6103 134.033 68.3434 133.691 67.9854 133.469L67.4831 133.101L67.8326 133.36C67.1198 132.812 66.4812 132.176 65.9326 131.466L66.1837 131.802C65.9113 131.456 65.6597 131.094 65.4303 130.719C65.2088 130.357 64.8581 130.09 64.4476 129.972C64.0222 129.866 63.5716 129.928 63.1918 130.146C62.822 130.348 62.5474 130.686 62.4275 131.087C62.3187 131.508 62.3773 131.953 62.5913 132.332Z" fill="#151718"/>
<path d="M68.5423 136.218C71.578 133.865 74.2043 131.035 76.3169 127.84C76.4346 127.656 76.5135 127.45 76.5491 127.235C76.5847 127.019 76.5761 126.799 76.5239 126.587C76.4717 126.375 76.3769 126.176 76.2453 126.001C76.1136 125.826 75.9478 125.679 75.7577 125.57C75.5675 125.46 75.357 125.389 75.1387 125.362C74.9203 125.334 74.6987 125.351 74.4869 125.41C74.2751 125.469 74.0776 125.57 73.9061 125.707C73.7346 125.844 73.5927 126.013 73.4888 126.206C73.2267 126.595 72.9647 126.974 72.6917 127.353C72.5606 127.526 72.4405 127.699 72.3095 127.862L72.102 128.143C71.5233 128.858 70.9446 129.55 70.3113 130.221C69.0621 131.553 67.7074 132.784 66.2602 133.901C65.9561 134.207 65.7856 134.619 65.7856 135.049C65.7856 135.478 65.9561 135.89 66.2602 136.196C66.5769 136.486 66.9921 136.647 67.4231 136.647C67.8541 136.647 68.2693 136.486 68.586 136.196L68.5423 136.218Z" fill="#151718"/>
<path d="M73.598 128.565L76.6336 130.005C77.5965 130.558 78.6182 131.005 79.6801 131.336C80.1467 131.458 80.6357 131.468 81.1072 131.367C81.5788 131.266 82.0197 131.057 82.3941 130.755C82.7686 130.453 83.066 130.069 83.2623 129.632C83.4585 129.195 83.5481 128.718 83.5237 128.241C83.486 127.385 83.1934 126.561 82.6829 125.87C82.4099 125.459 81.2088 124.366 81.3507 123.825C81.3507 123.911 81.3507 123.825 81.5691 123.749C81.7921 123.732 82.016 123.766 82.2243 123.846C83.0982 124.289 83.9377 124.795 84.7357 125.362C85.5013 125.844 86.3994 126.078 87.3054 126.032C88.2114 125.985 89.0803 125.66 89.7914 125.102C91.2109 123.814 91.0034 121.703 90.2063 120.144C89.6656 119.431 89.2248 118.648 88.896 117.817C88.8361 117.642 88.8361 117.452 88.896 117.276C88.896 117.276 88.7104 117.276 88.896 117.363C90.1845 117.785 91.2109 118.77 92.6523 118.694C94.8907 118.586 95.7643 116.389 95.4258 114.473C94.9383 112.324 93.8438 110.356 92.2701 108.801C90.8287 107.264 88.5138 109.57 89.9552 111.096C91.0681 112.191 91.8542 113.569 92.2264 115.079C92.3028 115.501 92.15 115.479 92.4885 115.458C92.1609 115.458 91.5385 115.014 91.1891 114.83C90.6245 114.445 89.9702 114.209 89.2881 114.145C88.606 114.081 87.9186 114.19 87.2909 114.462C86.6199 114.887 86.1034 115.512 85.8166 116.248C85.5298 116.984 85.4878 117.792 85.6966 118.553C85.9069 119.302 86.2388 120.011 86.6794 120.653C86.996 121.14 87.673 121.909 87.5748 122.547C87.5748 122.807 87.411 122.85 86.9742 122.775C86.2861 122.571 85.6496 122.224 85.107 121.757C84.4791 121.256 83.7471 120.9 82.9636 120.713C82.1801 120.525 81.3646 120.513 80.5755 120.675C79.7991 120.869 79.1216 121.339 78.6709 121.995C78.2203 122.652 78.0277 123.449 78.1295 124.236C78.2779 125.165 78.678 126.036 79.287 126.758C79.5562 127.077 79.8043 127.413 80.0295 127.764C79.9749 127.667 80.2806 128.349 80.2588 128.338C80.237 128.327 80.5755 128.338 80.4881 128.187C80.2971 128.103 80.1 128.035 79.8985 127.981C79.4071 127.775 78.9376 127.515 78.468 127.288L75.1922 125.751C73.3032 124.842 71.6434 127.635 73.5434 128.555L73.598 128.565Z" fill="#151718"/>
<path d="M92.2155 111.312L97.5332 105.381C97.6941 105.232 97.8232 105.053 97.9127 104.854C98.0023 104.655 98.0504 104.44 98.0543 104.222C98.0581 104.004 98.0177 103.787 97.9353 103.585C97.8529 103.383 97.7303 103.199 97.5748 103.045C97.4193 102.891 97.234 102.769 97.03 102.688C96.8261 102.606 96.6076 102.566 96.3877 102.57C96.1678 102.574 95.9509 102.621 95.75 102.71C95.5491 102.799 95.3683 102.927 95.2183 103.086L89.9006 109.018C89.7397 109.166 89.6106 109.346 89.5211 109.545C89.4315 109.744 89.3834 109.959 89.3795 110.177C89.3756 110.395 89.4161 110.611 89.4985 110.814C89.5809 111.016 89.7035 111.199 89.859 111.354C90.0145 111.508 90.1998 111.629 90.4038 111.711C90.6077 111.793 90.8261 111.833 91.0461 111.829C91.266 111.825 91.4829 111.777 91.6838 111.688C91.8847 111.6 92.0655 111.472 92.2155 111.312Z" fill="#151718"/>
<path d="M95.7097 104.721C97.5781 106.116 99.7321 107.089 102.02 107.57C104.309 108.052 106.675 108.031 108.955 107.509C111.234 106.987 113.37 105.977 115.213 104.549C117.056 103.121 118.562 101.31 119.623 99.2438C124.078 90.2601 120.224 79.7611 111.685 74.8038C109.077 73.3277 106.197 72.3834 103.216 72.0265C100.234 71.6696 97.2105 71.9073 94.3229 72.7256C93.9367 72.8685 93.6185 73.1496 93.431 73.5134C93.2435 73.8773 93.2003 74.2976 93.3099 74.6915C93.4195 75.0854 93.674 75.4243 94.0232 75.6414C94.3724 75.8586 94.791 75.9382 95.1965 75.8645C103.397 73.6348 112.722 76.7629 116.708 84.5235C120.213 91.3425 117.614 100.986 110.09 103.855C108.122 104.649 105.982 104.935 103.871 104.685C101.761 104.435 99.749 103.658 98.0246 102.426C96.3867 101.149 94.0499 103.433 95.7097 104.721Z" fill="#151718"/>
<path d="M106.727 83.6468C107.142 77.7154 107.885 69.3919 114.371 66.7185C115.585 66.1525 116.944 65.9694 118.266 66.194C119.588 66.4185 120.809 67.0398 121.763 67.974C122.626 68.9096 123.265 70.0263 123.632 71.2408C123.998 72.4552 124.084 73.7361 123.882 74.9878C123.357 78.4081 121.152 81.2872 118.597 83.5277C117.024 84.9132 119.339 87.2078 120.912 85.8224C123.849 83.4027 125.949 80.1327 126.917 76.4706C127.319 74.7835 127.347 73.0299 126.998 71.3312C126.649 69.6324 125.932 68.029 124.897 66.6319C123.798 65.1971 122.31 64.1016 120.607 63.473C118.904 62.8445 117.055 62.7087 115.277 63.0817C113.432 63.5024 111.701 64.3169 110.205 65.4684C108.71 66.6199 107.486 68.0807 106.618 69.7491C104.238 73.992 103.812 78.8952 103.451 83.6468C103.299 85.7358 106.574 85.725 106.727 83.6468Z" fill="#151718"/>
<path d="M103.484 78.7436C101.016 77.8561 98.101 77.1634 95.8407 78.8844C93.5804 80.6053 93.6022 83.7334 95.0327 86.0605C97.5441 90.1735 103.397 92.7171 108.027 90.6931C110.636 89.5349 112.296 86.212 110.593 83.636C110.366 83.2729 110.008 83.0099 109.591 82.9012C109.175 82.7924 108.732 82.8462 108.354 83.0515C107.982 83.2704 107.711 83.6259 107.601 84.0411C107.49 84.4563 107.549 84.8979 107.765 85.2704C107.765 85.2704 107.983 85.6708 107.918 85.5193C107.918 85.5842 108.016 85.9739 107.994 85.7791C108.02 86.0385 107.99 86.3004 107.907 86.5476C107.776 86.8375 107.586 87.0976 107.349 87.3117C107.113 87.5258 106.834 87.6894 106.531 87.7923C105.054 88.2884 103.447 88.2462 101.999 87.6732C100.531 87.1647 99.237 86.257 98.2648 85.0539C97.8306 84.5035 97.508 83.875 97.3148 83.203C97.2184 82.8986 97.196 82.576 97.2493 82.2614C97.2883 82.0423 97.3908 81.8393 97.5441 81.6769C97.7488 81.4945 97.9809 81.3448 98.232 81.2331C98.5779 81.0927 98.9508 81.0298 99.324 81.0491C100.483 81.1261 101.618 81.4084 102.676 81.8825C103.096 81.9927 103.543 81.9354 103.92 81.7229C104.298 81.5105 104.576 81.1598 104.696 80.746C104.802 80.3302 104.741 79.89 104.528 79.5171C104.314 79.1442 103.964 78.8672 103.55 78.7436H103.484Z" fill="#151718"/>
</svg>
