<svg width="91" height="14" viewBox="0 0 91 14" fill="none" xmlns="http://www.w3.org/2000/svg">
<path d="M7.5 0L9.0716 4.83688H14.1574L10.0429 7.82624L11.6145 12.6631L7.5 9.67376L3.3855 12.6631L4.9571 7.82624L0.842604 4.83688H5.9284L7.5 0Z" fill="#DBFF01"/>
<path d="M7.5 0L9.0716 4.83688H14.1574L10.0429 7.82624L11.6145 12.6631L7.5 9.67376L3.3855 12.6631L4.9571 7.82624L0.842604 4.83688H5.9284L7.5 0Z" fill="#DBFF01"/>
<path d="M26.5 0L28.0716 4.83688H33.1574L29.0429 7.82624L30.6145 12.6631L26.5 9.67376L22.3855 12.6631L23.9571 7.82624L19.8426 4.83688H24.9284L26.5 0Z" fill="#DBFF01"/>
<path d="M45.5 0L47.0716 4.83688H52.1574L48.0429 7.82624L49.6145 12.6631L45.5 9.67376L41.3855 12.6631L42.9571 7.82624L38.8426 4.83688H43.9284L45.5 0Z" fill="#DBFF01"/>
<path d="M64.5 0L66.0716 4.83688H71.1574L67.0429 7.82624L68.6145 12.6631L64.5 9.67376L60.3855 12.6631L61.9571 7.82624L57.8426 4.83688H62.9284L64.5 0Z" fill="#DBFF01"/>
<path d="M83.5 0L85.0716 4.83688H90.1574L86.0429 7.82624L87.6145 12.6631L83.5 9.67376L79.3855 12.6631L80.9571 7.82624L76.8426 4.83688H81.9284L83.5 0Z" fill="#DBFF01"/>
</svg>
