<svg width="14" height="14" viewBox="0 0 14 14" fill="none" xmlns="http://www.w3.org/2000/svg">
<path d="M4.25 0.25C2.17925 0.25 0.5 1.92925 0.5 4V10C0.5 12.0707 2.17925 13.75 4.25 13.75H10.25C12.3207 13.75 14 12.0707 14 10V4C14 1.92925 12.3207 0.25 10.25 0.25H4.25ZM11.75 1.75C12.164 1.75 12.5 2.086 12.5 2.5C12.5 2.914 12.164 3.25 11.75 3.25C11.336 3.25 11 2.914 11 2.5C11 2.086 11.336 1.75 11.75 1.75ZM7.25 3.25C9.32075 3.25 11 4.92925 11 7C11 9.07075 9.32075 10.75 7.25 10.75C5.17925 10.75 3.5 9.07075 3.5 7C3.5 4.92925 5.17925 3.25 7.25 3.25ZM7.25 4.75C6.65326 4.75 6.08097 4.98705 5.65901 5.40901C5.23705 5.83097 5 6.40326 5 7C5 7.59674 5.23705 8.16903 5.65901 8.59099C6.08097 9.01295 6.65326 9.25 7.25 9.25C7.84674 9.25 8.41903 9.01295 8.84099 8.59099C9.26295 8.16903 9.5 7.59674 9.5 7C9.5 6.40326 9.26295 5.83097 8.84099 5.40901C8.41903 4.98705 7.84674 4.75 7.25 4.75Z" fill="black"/>
</svg>
