<svg width="10" height="16" viewBox="0 0 10 16" fill="none" xmlns="http://www.w3.org/2000/svg">
<path fill-rule="evenodd" clip-rule="evenodd" d="M0.293031 5.70703C0.10556 5.5195 0.000244141 5.26519 0.000244141 5.00003C0.000244141 4.73487 0.10556 4.48056 0.293031 4.29303L4.29303 0.293031C4.48056 0.105559 4.73487 0.000244141 5.00003 0.000244141C5.26519 0.000244141 5.5195 0.105559 5.70703 0.293031L9.70703 4.29303C9.88919 4.48163 9.98998 4.73423 9.9877 4.99643C9.98543 5.25863 9.88026 5.50944 9.69485 5.69485C9.50944 5.88026 9.25863 5.98543 8.99643 5.9877C8.73423 5.98998 8.48163 5.88919 8.29303 5.70703L6.00003 3.41403V15C6.00003 15.2652 5.89467 15.5196 5.70714 15.7071C5.5196 15.8947 5.26525 16 5.00003 16C4.73481 16 4.48046 15.8947 4.29292 15.7071C4.10539 15.5196 4.00003 15.2652 4.00003 15V3.41403L1.70703 5.70703C1.5195 5.8945 1.26519 5.99982 1.00003 5.99982C0.734866 5.99982 0.480558 5.8945 0.293031 5.70703Z" fill="black"/>
</svg>
