<svg width="14" height="14" viewBox="0 0 14 14" fill="none" xmlns="http://www.w3.org/2000/svg">
<path d="M12 0.25H1.5C0.67125 0.25 0 0.92125 0 1.75V12.25C0 13.0788 0.67125 13.75 1.5 13.75H12C12.8288 13.75 13.5 13.0788 13.5 12.25V1.75C13.5 0.92125 12.8288 0.25 12 0.25ZM4.5 10.75H2.60775V5.5H4.5V10.75ZM3.5205 4.53775C2.94225 4.53775 2.556 4.15225 2.556 3.63775C2.556 3.12325 2.9415 2.73775 3.58425 2.73775C4.1625 2.73775 4.54875 3.12325 4.54875 3.63775C4.54875 4.15225 4.16325 4.53775 3.5205 4.53775ZM11.25 10.75H9.4185V7.8805C9.4185 7.087 8.93025 6.904 8.74725 6.904C8.56425 6.904 7.95375 7.02625 7.95375 7.8805C7.95375 8.00275 7.95375 10.75 7.95375 10.75H6.0615V5.5H7.95375V6.23275C8.1975 5.80525 8.68575 5.5 9.6015 5.5C10.5173 5.5 11.25 6.23275 11.25 7.8805V10.75Z" fill="black"/>
</svg>
